<svg xmlns="http://www.w3.org/2000/svg" xmlns:xlink="http://www.w3.org/1999/xlink" width="40" zoomAndPan="magnify" viewBox="0 0 30 30.000001" height="40" preserveAspectRatio="xMidYMid meet" version="1.0"><defs><clipPath id="e81899c875"><path d="M 4.511719 4.027344 L 26.285156 4.027344 L 26.285156 25.800781 L 4.511719 25.800781 Z M 4.511719 4.027344 " clip-rule="nonzero"/></clipPath></defs><g clip-path="url(#e81899c875)"><path fill="#ffffff" d="M 15.394531 5.992188 C 18.300781 5.992188 18.644531 6 19.792969 6.054688 C 20.851562 6.101562 21.429688 6.277344 21.816406 6.429688 C 22.320312 6.625 22.683594 6.863281 23.066406 7.246094 C 23.449219 7.628906 23.679688 7.992188 23.882812 8.496094 C 24.03125 8.878906 24.207031 9.457031 24.257812 10.519531 C 24.3125 11.667969 24.320312 12.011719 24.320312 14.917969 C 24.320312 17.824219 24.3125 18.167969 24.257812 19.316406 C 24.210938 20.375 24.035156 20.953125 23.882812 21.339844 C 23.6875 21.84375 23.449219 22.207031 23.066406 22.589844 C 22.683594 22.972656 22.320312 23.203125 21.816406 23.40625 C 21.433594 23.554688 20.855469 23.730469 19.792969 23.78125 C 18.644531 23.835938 18.300781 23.84375 15.394531 23.84375 C 12.488281 23.84375 12.144531 23.835938 10.996094 23.78125 C 9.9375 23.734375 9.359375 23.558594 8.972656 23.40625 C 8.46875 23.210938 8.105469 22.972656 7.722656 22.589844 C 7.339844 22.207031 7.109375 21.84375 6.90625 21.339844 C 6.757812 20.957031 6.582031 20.378906 6.53125 19.316406 C 6.476562 18.167969 6.46875 17.824219 6.46875 14.917969 C 6.46875 12.011719 6.476562 11.667969 6.53125 10.519531 C 6.578125 9.460938 6.753906 8.882812 6.90625 8.496094 C 7.101562 7.992188 7.339844 7.628906 7.722656 7.246094 C 8.105469 6.863281 8.46875 6.628906 8.972656 6.429688 C 9.355469 6.28125 9.933594 6.105469 10.996094 6.054688 C 12.144531 6 12.488281 5.992188 15.394531 5.992188 M 15.394531 4.03125 C 12.4375 4.03125 12.070312 4.046875 10.90625 4.097656 C 9.746094 4.148438 8.953125 4.335938 8.261719 4.601562 C 7.546875 4.878906 6.941406 5.25 6.335938 5.859375 C 5.734375 6.464844 5.359375 7.070312 5.085938 7.785156 C 4.816406 8.476562 4.632812 9.269531 4.578125 10.429688 C 4.527344 11.585938 4.511719 11.960938 4.511719 14.914062 C 4.511719 17.871094 4.527344 18.238281 4.578125 19.402344 C 4.632812 20.5625 4.816406 21.355469 5.085938 22.046875 C 5.359375 22.761719 5.734375 23.367188 6.339844 23.972656 C 6.945312 24.578125 7.550781 24.949219 8.265625 25.226562 C 8.957031 25.496094 9.75 25.679688 10.910156 25.734375 C 12.070312 25.785156 12.441406 25.800781 15.398438 25.800781 C 18.355469 25.800781 18.722656 25.785156 19.886719 25.734375 C 21.046875 25.679688 21.839844 25.496094 22.53125 25.226562 C 23.246094 24.949219 23.851562 24.578125 24.460938 23.972656 C 25.066406 23.367188 25.4375 22.761719 25.714844 22.046875 C 25.980469 21.355469 26.167969 20.5625 26.21875 19.402344 C 26.273438 18.242188 26.285156 17.871094 26.285156 14.914062 C 26.285156 11.953125 26.273438 11.585938 26.21875 10.421875 C 26.167969 9.265625 25.980469 8.472656 25.714844 7.78125 C 25.4375 7.066406 25.066406 6.457031 24.460938 5.851562 C 23.851562 5.246094 23.246094 4.875 22.53125 4.597656 C 21.839844 4.332031 21.046875 4.144531 19.886719 4.09375 C 18.722656 4.046875 18.351562 4.03125 15.394531 4.03125 " fill-opacity="1" fill-rule="nonzero"/></g><path fill="#ffffff" d="M 15.394531 9.328125 C 12.308594 9.328125 9.808594 11.828125 9.808594 14.914062 C 9.808594 18 12.3125 20.503906 15.398438 20.503906 C 18.484375 20.503906 20.992188 18.003906 20.992188 14.914062 C 20.984375 11.828125 18.480469 9.328125 15.394531 9.328125 M 15.394531 18.542969 C 13.390625 18.542969 11.769531 16.921875 11.769531 14.917969 C 11.769531 12.914062 13.390625 11.292969 15.394531 11.292969 C 17.398438 11.292969 19.019531 12.914062 19.019531 14.917969 C 19.023438 16.917969 17.398438 18.542969 15.394531 18.542969 " fill-opacity="1" fill-rule="nonzero"/><path fill="#ffffff" d="M 22.511719 9.105469 C 22.511719 9.828125 21.925781 10.414062 21.207031 10.414062 C 20.484375 10.414062 19.898438 9.828125 19.898438 9.105469 C 19.898438 8.386719 20.484375 7.800781 21.207031 7.800781 C 21.925781 7.800781 22.511719 8.382812 22.511719 9.105469 " fill-opacity="1" fill-rule="nonzero"/></svg>