<svg xmlns="http://www.w3.org/2000/svg" xmlns:xlink="http://www.w3.org/1999/xlink" width="40" zoomAndPan="magnify" viewBox="0 0 30 30.000001" height="40" preserveAspectRatio="xMidYMid meet" version="1.0"><defs><clipPath id="a676bc93b5"><path d="M 0.484375 6.019531 L 29 6.019531 L 29 22.710938 L 0.484375 22.710938 Z M 0.484375 6.019531 " clip-rule="nonzero"/></clipPath></defs><g clip-path="url(#a676bc93b5)"><path fill="#ffffff" d="M 11.121094 14.042969 C 10.558594 14.363281 9.785156 13.710938 8.140625 10.726562 C 7.289062 9.199219 7.203125 8.203125 6.648438 7.511719 C 6.382812 7.214844 6.050781 7.027344 5.65625 6.945312 L 1.683594 6.945312 C 1.683594 6.945312 1.007812 6.886719 0.867188 7.070312 C 0.730469 7.257812 0.867188 7.808594 0.867188 7.808594 C 0.867188 7.808594 3.976562 15.375 7.503906 19.191406 C 10.703125 22.6875 14.371094 22.515625 14.371094 22.515625 C 14.371094 22.515625 16.503906 22.613281 16.792969 22.101562 C 16.945312 21.871094 17.019531 21.617188 17.023438 21.34375 C 17.023438 21.34375 16.988281 19.019531 18.015625 18.683594 C 19.042969 18.347656 20.351562 20.917969 21.734375 21.914062 C 22.820312 22.628906 23.121094 22.515625 23.617188 22.515625 L 27.332031 22.515625 C 27.332031 22.515625 29.28125 22.316406 28.355469 20.730469 C 28.28125 20.597656 27.820312 19.558594 25.59375 17.410156 C 23.265625 15.160156 23.578125 15.527344 26.386719 11.636719 C 28.09375 9.269531 28.78125 7.824219 28.5625 7.203125 C 28.433594 6.847656 27.09375 6.945312 27.09375 6.945312 L 22.898438 6.945312 C 22.519531 6.933594 22.214844 7.078125 21.988281 7.375 C 21.523438 8.179688 21.328125 9.210938 20.445312 10.761719 C 18.582031 14.050781 17.835938 14.222656 17.535156 14.019531 C 16.824219 13.53125 17 12.105469 17 11.089844 C 17 7.902344 17.46875 6.574219 16.097656 6.207031 C 15.773438 6.125 15.441406 6.074219 15.105469 6.058594 C 14.574219 6.019531 14.035156 6.007812 13.5 6.019531 C 12.257812 6.019531 11.289062 6.0625 10.679688 6.375 C 10.183594 6.613281 9.832031 7.15625 10.0625 7.1875 C 10.5625 7.25 10.96875 7.480469 11.28125 7.871094 C 11.707031 8.484375 11.691406 9.824219 11.691406 9.824219 C 11.691406 9.824219 11.941406 13.578125 11.121094 14.042969 Z M 11.121094 14.042969 " fill-opacity="1" fill-rule="nonzero"/></g></svg>