<svg xmlns="http://www.w3.org/2000/svg" xmlns:xlink="http://www.w3.org/1999/xlink" width="100" zoomAndPan="magnify" viewBox="0 0 75 74.999997" height="100" preserveAspectRatio="xMidYMid meet" version="1.0"><defs><g/><clipPath id="4526207ed1"><path d="M 14.671875 11.902344 L 60.328125 11.902344 L 60.328125 57.558594 L 14.671875 57.558594 Z M 14.671875 11.902344 " clip-rule="nonzero"/></clipPath><clipPath id="eb54d95063"><path d="M 37.5 57.488281 C 31.417969 57.488281 25.703125 55.121094 21.410156 50.820312 C 17.109375 46.519531 14.742188 40.804688 14.742188 34.730469 C 14.742188 28.648438 17.109375 22.933594 21.410156 18.640625 C 25.710938 14.339844 31.425781 11.972656 37.5 11.972656 C 43.582031 11.972656 49.296875 14.339844 53.589844 18.640625 C 57.890625 22.941406 60.257812 28.65625 60.257812 34.730469 C 60.257812 40.8125 57.890625 46.527344 53.589844 50.820312 C 49.296875 55.121094 43.582031 57.488281 37.5 57.488281 Z M 37.5 13.800781 C 31.910156 13.800781 26.652344 15.972656 22.695312 19.929688 C 18.742188 23.882812 16.570312 29.140625 16.570312 34.730469 C 16.570312 40.320312 18.742188 45.578125 22.695312 49.535156 C 26.652344 53.488281 31.910156 55.660156 37.5 55.660156 C 43.089844 55.660156 48.347656 53.488281 52.304688 49.535156 C 56.257812 45.578125 58.429688 40.320312 58.429688 34.730469 C 58.429688 29.140625 56.257812 23.882812 52.304688 19.929688 C 48.347656 15.972656 43.089844 13.800781 37.5 13.800781 Z M 37.5 13.800781 " clip-rule="nonzero"/></clipPath><clipPath id="2207f761cc"><path d="M 21.320312 18.378906 L 51.320312 18.378906 L 51.320312 48.378906 L 21.320312 48.378906 Z M 21.320312 18.378906 " clip-rule="nonzero"/></clipPath></defs><g clip-path="url(#4526207ed1)"><g clip-path="url(#eb54d95063)"><path fill="#000000" d="M 14.671875 11.902344 L 60.328125 11.902344 L 60.328125 57.558594 L 14.671875 57.558594 Z M 14.671875 11.902344 " fill-opacity="1" fill-rule="nonzero"/></g></g><g clip-path="url(#2207f761cc)"><path fill="#000000" d="M 30.890625 27.953125 C 31.054688 28.070312 31.242188 28.117188 31.429688 28.117188 C 31.546875 28.117188 31.664062 28.09375 31.757812 28.046875 L 32.671875 27.695312 C 33.394531 27.414062 33.746094 26.59375 33.488281 25.867188 L 32.578125 23.410156 C 32.367188 22.875 31.851562 22.5 31.265625 22.5 C 31.101562 22.5 30.914062 22.523438 30.75 22.59375 L 29.769531 22.96875 C 29.511719 23.0625 29.324219 23.269531 29.230469 23.527344 C 29.089844 23.457031 28.949219 23.410156 28.785156 23.410156 C 28.667969 23.410156 28.550781 23.433594 28.457031 23.480469 L 24.246094 25.121094 C 23.847656 25.238281 21.414062 26.242188 21.320312 29.847656 C 21.320312 30.269531 21.578125 30.644531 21.976562 30.757812 C 22.070312 30.78125 22.164062 30.804688 22.257812 30.804688 C 22.5625 30.804688 22.867188 30.644531 23.050781 30.386719 C 23.355469 29.917969 24.269531 28.816406 25.324219 28.558594 L 26.09375 29.472656 C 26.28125 29.683594 26.539062 29.800781 26.796875 29.800781 C 26.914062 29.800781 27.03125 29.777344 27.125 29.730469 L 27.195312 29.707031 L 28.316406 32.726562 L 26.234375 32.726562 C 25.953125 32.726562 25.671875 32.867188 25.484375 33.078125 C 25.300781 33.308594 25.253906 33.589844 25.324219 33.871094 L 25.789062 35.742188 C 25.859375 35.976562 26 36.1875 26.210938 36.304688 L 27.640625 47.539062 C 27.710938 48.007812 28.105469 48.355469 28.574219 48.355469 L 44.019531 48.355469 C 44.488281 48.355469 44.886719 48.007812 44.957031 47.539062 L 46.382812 36.304688 C 46.59375 36.1875 46.734375 35.976562 46.804688 35.742188 L 47.273438 33.871094 C 47.34375 33.589844 47.273438 33.285156 47.109375 33.078125 C 46.921875 32.84375 46.664062 32.726562 46.359375 32.726562 L 45.914062 32.726562 L 46.335938 31.578125 C 46.429688 31.601562 46.546875 31.601562 46.640625 31.601562 C 47.320312 31.601562 47.925781 31.203125 48.160156 30.574219 L 48.582031 29.496094 C 48.675781 29.261719 48.675781 29.003906 48.558594 28.769531 C 48.441406 28.535156 48.277344 28.371094 48.042969 28.277344 C 48.042969 28.277344 48.019531 28.277344 48.019531 28.277344 C 48.019531 28.277344 47.996094 28.277344 47.996094 28.253906 C 47.996094 28.253906 47.996094 28.230469 47.996094 28.230469 C 47.996094 28.207031 48.042969 28.207031 48.042969 28.207031 C 48.042969 28.207031 48.042969 28.207031 48.066406 28.207031 C 48.066406 28.207031 48.089844 28.207031 48.089844 28.207031 C 48.207031 28.253906 48.300781 28.277344 48.417969 28.277344 C 48.792969 28.277344 49.144531 28.046875 49.285156 27.695312 L 51.085938 23.132812 C 51.320312 22.546875 51.296875 21.914062 51.039062 21.351562 C 50.78125 20.789062 50.316406 20.347656 49.730469 20.113281 L 48.417969 19.621094 C 48.136719 19.527344 47.859375 19.457031 47.578125 19.457031 C 46.59375 19.457031 45.75 20.042969 45.378906 20.929688 L 43.574219 25.496094 C 43.386719 25.960938 43.621094 26.5 44.089844 26.710938 C 44.113281 26.710938 44.136719 26.734375 44.113281 26.757812 C 44.113281 26.78125 44.066406 26.78125 44.066406 26.78125 C 44.066406 26.78125 44.042969 26.78125 44.042969 26.78125 C 43.949219 26.734375 43.832031 26.734375 43.738281 26.734375 C 43.363281 26.734375 43.011719 26.96875 42.875 27.320312 L 42.453125 28.394531 C 42.289062 28.792969 42.3125 29.238281 42.476562 29.636719 C 42.640625 30.011719 42.917969 30.292969 43.292969 30.457031 L 42.453125 32.726562 L 40.042969 32.726562 L 40.042969 25.703125 C 41.328125 24.957031 42.148438 23.597656 42.148438 22.125 C 42.148438 20.628906 41.351562 19.292969 39.996094 18.519531 C 39.855469 18.425781 39.691406 18.402344 39.527344 18.402344 C 39.363281 18.402344 39.199219 18.449219 39.058594 18.519531 C 38.777344 18.683594 38.589844 18.988281 38.589844 19.339844 L 38.589844 21.445312 L 37.632812 21.890625 L 36.695312 21.445312 L 36.695312 19.410156 C 36.695312 19.082031 36.507812 18.753906 36.203125 18.589844 C 36.0625 18.519531 35.898438 18.472656 35.757812 18.472656 C 35.59375 18.472656 35.40625 18.519531 35.269531 18.613281 C 34.003906 19.386719 33.253906 20.71875 33.253906 22.148438 C 33.253906 23.621094 34.074219 24.980469 35.363281 25.726562 L 35.363281 32.726562 L 32.179688 32.726562 L 30.5625 28.417969 C 30.726562 28.277344 30.84375 28.117188 30.890625 27.953125 Z M 44.019531 47.421875 L 28.574219 47.421875 L 27.171875 36.445312 L 45.421875 36.445312 Z M 43.363281 28.722656 L 43.785156 27.648438 C 43.902344 27.695312 44.019531 27.695312 44.113281 27.695312 C 44.511719 27.695312 44.886719 27.460938 45.050781 27.0625 C 45.238281 26.570312 45.003906 26.007812 44.511719 25.796875 L 46.3125 21.234375 C 46.523438 20.675781 47.0625 20.347656 47.625 20.347656 C 47.789062 20.347656 47.972656 20.371094 48.136719 20.441406 L 49.449219 20.929688 C 50.175781 21.210938 50.546875 22.007812 50.269531 22.734375 L 48.464844 27.296875 C 48.464844 27.296875 48.441406 27.296875 48.441406 27.296875 C 48.324219 27.25 48.207031 27.226562 48.089844 27.226562 C 47.695312 27.226562 47.320312 27.460938 47.15625 27.859375 C 46.96875 28.347656 47.203125 28.933594 47.71875 29.121094 C 47.71875 29.121094 47.742188 29.121094 47.742188 29.121094 L 47.320312 30.199219 C 47.203125 30.480469 46.945312 30.644531 46.664062 30.644531 C 46.570312 30.644531 46.5 30.621094 46.40625 30.597656 L 43.761719 29.589844 C 43.410156 29.472656 43.222656 29.074219 43.363281 28.722656 Z M 45.46875 31.273438 L 44.933594 32.726562 L 43.480469 32.726562 L 44.207031 30.804688 Z M 34.191406 22.125 C 34.191406 20.976562 34.824219 19.972656 35.757812 19.386719 L 35.757812 22.03125 L 37.65625 22.921875 L 39.550781 22.03125 L 39.550781 19.339844 C 40.554688 19.925781 41.234375 20.953125 41.234375 22.125 C 41.234375 23.457031 40.371094 24.628906 39.128906 25.121094 L 39.128906 32.703125 L 36.296875 32.703125 L 36.296875 25.144531 C 35.058594 24.628906 34.191406 23.480469 34.191406 22.125 Z M 46.359375 33.636719 L 45.890625 35.511719 L 26.703125 35.511719 L 26.234375 33.636719 Z M 30.003906 27.648438 L 29.394531 27.953125 L 31.171875 32.703125 L 29.324219 32.703125 L 27.757812 28.464844 L 26.796875 28.839844 L 25.695312 27.554688 C 23.730469 27.601562 22.257812 29.871094 22.257812 29.871094 C 22.328125 26.6875 24.550781 25.984375 24.550781 25.984375 L 28.785156 24.347656 L 29.628906 25.261719 L 30.214844 25.027344 L 30.097656 23.832031 L 31.078125 23.457031 C 31.125 23.433594 31.195312 23.433594 31.242188 23.433594 C 31.429688 23.433594 31.617188 23.550781 31.6875 23.738281 L 32.601562 26.195312 C 32.695312 26.453125 32.578125 26.710938 32.320312 26.804688 L 31.40625 27.15625 L 30.679688 26.3125 L 29.980469 26.59375 Z M 30.003906 27.648438 " fill-opacity="1" fill-rule="nonzero"/></g><g fill="#393939" fill-opacity="1"><g transform="translate(17.980836, 67.115347)"><g><path d="M 0.578125 -6.734375 C 0.847656 -6.785156 1.144531 -6.828125 1.46875 -6.859375 C 1.800781 -6.890625 2.128906 -6.90625 2.453125 -6.90625 C 2.796875 -6.90625 3.132812 -6.875 3.46875 -6.8125 C 3.8125 -6.757812 4.117188 -6.648438 4.390625 -6.484375 C 4.660156 -6.316406 4.878906 -6.085938 5.046875 -5.796875 C 5.222656 -5.503906 5.3125 -5.117188 5.3125 -4.640625 C 5.3125 -4.210938 5.238281 -3.851562 5.09375 -3.5625 C 4.945312 -3.269531 4.75 -3.03125 4.5 -2.84375 C 4.25 -2.65625 3.96875 -2.515625 3.65625 -2.421875 C 3.34375 -2.335938 3.019531 -2.296875 2.6875 -2.296875 C 2.65625 -2.296875 2.601562 -2.296875 2.53125 -2.296875 C 2.457031 -2.296875 2.378906 -2.296875 2.296875 -2.296875 C 2.222656 -2.304688 2.148438 -2.3125 2.078125 -2.3125 C 2.003906 -2.320312 1.953125 -2.332031 1.921875 -2.34375 L 1.921875 0 L 0.578125 0 Z M 2.5625 -5.75 C 2.4375 -5.75 2.3125 -5.742188 2.1875 -5.734375 C 2.070312 -5.722656 1.984375 -5.710938 1.921875 -5.703125 L 1.921875 -3.5 C 1.941406 -3.488281 1.976562 -3.476562 2.03125 -3.46875 C 2.082031 -3.46875 2.132812 -3.460938 2.1875 -3.453125 C 2.25 -3.453125 2.304688 -3.453125 2.359375 -3.453125 C 2.421875 -3.453125 2.460938 -3.453125 2.484375 -3.453125 C 2.660156 -3.453125 2.832031 -3.46875 3 -3.5 C 3.175781 -3.539062 3.332031 -3.601562 3.46875 -3.6875 C 3.601562 -3.769531 3.710938 -3.890625 3.796875 -4.046875 C 3.878906 -4.203125 3.921875 -4.410156 3.921875 -4.671875 C 3.921875 -4.878906 3.878906 -5.050781 3.796875 -5.1875 C 3.722656 -5.332031 3.617188 -5.445312 3.484375 -5.53125 C 3.359375 -5.613281 3.210938 -5.671875 3.046875 -5.703125 C 2.890625 -5.734375 2.726562 -5.75 2.5625 -5.75 Z M 2.5625 -5.75 "/></g></g></g><g fill="#393939" fill-opacity="1"><g transform="translate(24.416561, 67.115347)"><g><path d="M 3.9375 -1.5 L 1.84375 -1.5 L 1.328125 0 L 0 0 L 2.453125 -6.859375 L 3.4375 -6.859375 L 5.875 0 L 4.484375 0 Z M 2.1875 -2.578125 L 3.640625 -2.578125 L 3.140625 -4.09375 L 2.9375 -5.15625 L 2.890625 -5.15625 L 2.6875 -4.078125 Z M 2.1875 -2.578125 "/></g></g></g><g fill="#393939" fill-opacity="1"><g transform="translate(31.173108, 67.115347)"><g><path d="M 2.8125 -2.8125 L 3 -1.65625 L 3.046875 -1.65625 L 3.234375 -2.8125 L 4.53125 -6.796875 L 5.9375 -6.796875 L 3.40625 0.046875 L 2.453125 0.046875 L -0.09375 -6.796875 L 1.453125 -6.796875 Z M 2.8125 -2.8125 "/></g></g></g><g fill="#393939" fill-opacity="1"><g transform="translate(37.900481, 67.115347)"><g><path d="M 4.890625 0 L 0.578125 0 L 0.578125 -6.796875 L 1.921875 -6.796875 L 1.921875 -1.1875 L 4.890625 -1.1875 Z M 4.890625 0 "/></g></g></g><g fill="#393939" fill-opacity="1"><g transform="translate(43.772355, 67.115347)"><g><path d="M 0.375 -3.40625 C 0.375 -4.539062 0.617188 -5.410156 1.109375 -6.015625 C 1.609375 -6.628906 2.320312 -6.9375 3.25 -6.9375 C 3.738281 -6.9375 4.164062 -6.851562 4.53125 -6.6875 C 4.894531 -6.519531 5.195312 -6.28125 5.4375 -5.96875 C 5.675781 -5.65625 5.851562 -5.28125 5.96875 -4.84375 C 6.082031 -4.414062 6.140625 -3.9375 6.140625 -3.40625 C 6.140625 -2.269531 5.890625 -1.394531 5.390625 -0.78125 C 4.890625 -0.164062 4.175781 0.140625 3.25 0.140625 C 2.757812 0.140625 2.332031 0.0546875 1.96875 -0.109375 C 1.601562 -0.285156 1.300781 -0.523438 1.0625 -0.828125 C 0.832031 -1.140625 0.660156 -1.515625 0.546875 -1.953125 C 0.429688 -2.390625 0.375 -2.875 0.375 -3.40625 Z M 1.765625 -3.40625 C 1.765625 -3.0625 1.789062 -2.742188 1.84375 -2.453125 C 1.90625 -2.160156 1.992188 -1.910156 2.109375 -1.703125 C 2.234375 -1.503906 2.390625 -1.34375 2.578125 -1.21875 C 2.765625 -1.101562 2.988281 -1.046875 3.25 -1.046875 C 3.726562 -1.046875 4.097656 -1.226562 4.359375 -1.59375 C 4.617188 -1.96875 4.75 -2.570312 4.75 -3.40625 C 4.75 -3.726562 4.71875 -4.03125 4.65625 -4.3125 C 4.601562 -4.601562 4.519531 -4.851562 4.40625 -5.0625 C 4.289062 -5.28125 4.132812 -5.445312 3.9375 -5.5625 C 3.75 -5.6875 3.519531 -5.75 3.25 -5.75 C 2.78125 -5.75 2.414062 -5.554688 2.15625 -5.171875 C 1.894531 -4.796875 1.765625 -4.207031 1.765625 -3.40625 Z M 1.765625 -3.40625 "/></g></g></g><g fill="#393939" fill-opacity="1"><g transform="translate(51.160805, 67.115347)"><g><path d="M 2.8125 -2.8125 L 3 -1.65625 L 3.046875 -1.65625 L 3.234375 -2.8125 L 4.53125 -6.796875 L 5.9375 -6.796875 L 3.40625 0.046875 L 2.453125 0.046875 L -0.09375 -6.796875 L 1.453125 -6.796875 Z M 2.8125 -2.8125 "/></g></g></g></svg>